# xmcd
#
# Track frame offsets:
# 150
# 15445
# 29372
# 39990
# 53250
# 67207
# 84880
# 98562
# 111512
# 127185
# 138022
# 150090
# 163350
# 174925
# 185447
# 200260
# 212025
# 226567
# 241550
# 254380
#
# Disc length: 3559 seconds
#
#
# Revision: 2
# Processed by: cddbd v1.5.2PL0 Copyright (c) Steve Scherf et al.
# Submitted via: FreeRIP 2.943 
#
DISCID=f00de514
DTITLE=Rogers, Kenny - For The Good Times - For The Good Times
DYEAR=1987
DGENRE=Country
TTITLE0=For The Good Times
TTITLE1=It's Gonna Be Better
TTITLE2=Home Made Lies
TTITLE3=Sleep Comes Easy
TTITLE4=But You Know I Love You
TTITLE5=Something's Burning
TTITLE6=Shine On Ruby Mountain
TTITLE7=Run Through Your Mind
TTITLE8=My Washington Woman
TTITLE9=She Even Woke Me Up To Say Goodbye
TTITLE10=Elvira
TTITLE11=A Stranger In My Place
TTITLE12=Hurry Up Love
TTITLE13=Ticket To Nowhere
TTITLE14=After All I Live My Life
TTITLE15=Me And Bobby McGee
TTITLE16=It's Raining in My Mind
TTITLE17=Conditions (Just Dropped In)
TTITLE18=Shadow In The Corner Of Your Mind
TTITLE19=Reuben James
EXTD=
EXTT0=
EXTT1=
EXTT2=
EXTT3=
EXTT4=
EXTT5=
EXTT6=
EXTT7=
EXTT8=
EXTT9=
EXTT10=
EXTT11=
EXTT12=
EXTT13=
EXTT14=
EXTT15=
EXTT16=
EXTT17=
EXTT18=
EXTT19=
PLAYORDER=
